<svg width="127" height="52" viewBox="0 0 127 52" fill="none" xmlns="http://www.w3.org/2000/svg">
<circle cx="19" cy="29" r="19" fill="#437EA8"/>
<path d="M21.3574 27.9326H31.2695V32.2051H21.3574V43.4355H16.8164V32.2051H6.9043V27.9326H16.8164V17.5566H21.3574V27.9326Z" fill="white"/>
<path d="M71.71 18.94V40H66.58V27.37L61.87 40H57.73L52.99 27.34V40H47.86V18.94H53.92L59.83 33.52L65.68 18.94H71.71ZM74.3791 31.6C74.3791 29.88 74.6991 28.37 75.3391 27.07C75.9991 25.77 76.8891 24.77 78.0091 24.07C79.1291 23.37 80.3791 23.02 81.7591 23.02C82.9391 23.02 83.9691 23.26 84.8491 23.74C85.7491 24.22 86.4391 24.85 86.9191 25.63V23.26H92.0491V40H86.9191V37.63C86.4191 38.41 85.7191 39.04 84.8191 39.52C83.9391 40 82.9091 40.24 81.7291 40.24C80.3691 40.24 79.1291 39.89 78.0091 39.19C76.8891 38.47 75.9991 37.46 75.3391 36.16C74.6991 34.84 74.3791 33.32 74.3791 31.6ZM86.9191 31.63C86.9191 30.35 86.5591 29.34 85.8391 28.6C85.1391 27.86 84.2791 27.49 83.2591 27.49C82.2391 27.49 81.3691 27.86 80.6491 28.6C79.9491 29.32 79.5991 30.32 79.5991 31.6C79.5991 32.88 79.9491 33.9 80.6491 34.66C81.3691 35.4 82.2391 35.77 83.2591 35.77C84.2791 35.77 85.1391 35.4 85.8391 34.66C86.5591 33.92 86.9191 32.91 86.9191 31.63ZM105.09 35.65V40H102.48C100.62 40 99.1704 39.55 98.1304 38.65C97.0904 37.73 96.5704 36.24 96.5704 34.18V27.52H94.5304V23.26H96.5704V19.18H101.7V23.26H105.06V27.52H101.7V34.24C101.7 34.74 101.82 35.1 102.06 35.32C102.3 35.54 102.7 35.65 103.26 35.65H105.09ZM118.238 23.08C120.158 23.08 121.698 23.72 122.858 25C124.018 26.26 124.598 28 124.598 30.22V40H119.498V30.91C119.498 29.79 119.208 28.92 118.628 28.3C118.048 27.68 117.268 27.37 116.288 27.37C115.308 27.37 114.528 27.68 113.948 28.3C113.368 28.92 113.078 29.79 113.078 30.91V40H107.948V17.8H113.078V25.51C113.598 24.77 114.308 24.18 115.208 23.74C116.108 23.3 117.118 23.08 118.238 23.08Z" fill="#437EA8"/>
</svg>
