<svg width="127" height="60" viewBox="0 0 127 60" fill="none" xmlns="http://www.w3.org/2000/svg">
<circle cx="19" cy="30" r="19" fill="#437EA8"/>
<path d="M71.71 19.94V41H66.58V28.37L61.87 41H57.73L52.99 28.34V41H47.86V19.94H53.92L59.83 34.52L65.68 19.94H71.71ZM74.3791 32.6C74.3791 30.88 74.6991 29.37 75.3391 28.07C75.9991 26.77 76.8891 25.77 78.0091 25.07C79.1291 24.37 80.3791 24.02 81.7591 24.02C82.9391 24.02 83.9691 24.26 84.8491 24.74C85.7491 25.22 86.4391 25.85 86.9191 26.63V24.26H92.0491V41H86.9191V38.63C86.4191 39.41 85.7191 40.04 84.8191 40.52C83.9391 41 82.9091 41.24 81.7291 41.24C80.3691 41.24 79.1291 40.89 78.0091 40.19C76.8891 39.47 75.9991 38.46 75.3391 37.16C74.6991 35.84 74.3791 34.32 74.3791 32.6ZM86.9191 32.63C86.9191 31.35 86.5591 30.34 85.8391 29.6C85.1391 28.86 84.2791 28.49 83.2591 28.49C82.2391 28.49 81.3691 28.86 80.6491 29.6C79.9491 30.32 79.5991 31.32 79.5991 32.6C79.5991 33.88 79.9491 34.9 80.6491 35.66C81.3691 36.4 82.2391 36.77 83.2591 36.77C84.2791 36.77 85.1391 36.4 85.8391 35.66C86.5591 34.92 86.9191 33.91 86.9191 32.63ZM105.09 36.65V41H102.48C100.62 41 99.1704 40.55 98.1304 39.65C97.0904 38.73 96.5704 37.24 96.5704 35.18V28.52H94.5304V24.26H96.5704V20.18H101.7V24.26H105.06V28.52H101.7V35.24C101.7 35.74 101.82 36.1 102.06 36.32C102.3 36.54 102.7 36.65 103.26 36.65H105.09ZM118.238 24.08C120.158 24.08 121.698 24.72 122.858 26C124.018 27.26 124.598 29 124.598 31.22V41H119.498V31.91C119.498 30.79 119.208 29.92 118.628 29.3C118.048 28.68 117.268 28.37 116.288 28.37C115.308 28.37 114.528 28.68 113.948 29.3C113.368 29.92 113.078 30.79 113.078 31.91V41H107.948V18.8H113.078V26.51C113.598 25.77 114.308 25.18 115.208 24.74C116.108 24.3 117.118 24.08 118.238 24.08Z" fill="#437EA8"/>
<path d="M28.76 33.08H21.8V40.2H15.32V33.08H8.36V26.96H15.32V19.8H21.8V26.96H28.76V33.08Z" fill="#F0F2F5"/>
</svg>
